<svg xmlns="http://www.w3.org/2000/svg" viewBox="0 0 711.52 947.14"><defs><style>.cls-1,.cls-2{fill:#fff;}.cls-2{stroke:#fff;stroke-miterlimit:10;stroke-width:3px;}</style></defs><g id="Layer_2" data-name="Layer 2"><g id="Layer_3" data-name="Layer 3"><path d="M391.83,491a157.57,157.57,0,0,0-2.95,19.46c-.3,3.38-1.23,7.72,1.64,10.26,1.44,1.28,3.32,1.72,5.12,2.27l4.75,1.44a4.5,4.5,0,1,0,2.39-8.68l-4-1.23-1.9-.57a5.8,5.8,0,0,0-.87-.27c-.36,0,.32.18.48.31a1.58,1.58,0,0,1,.62,1c.31,1,.45,1.2.44.67a4.45,4.45,0,0,0,.06-1.16c0-.64.08-1.28.13-1.92.1-1.36.22-2.71.36-4.07a134.71,134.71,0,0,1,2.45-15.15c.5-2.3-.68-5-3.14-5.54-2.27-.51-5,.69-5.54,3.15Z"/><path class="cls-1" d="M408.52,511.59c8.7,4.9,15.9,14.81,25.83,13.73a25,25,0,0,0,7.85-2.67,399.21,399.21,0,0,0,41.63-22.84c8.11-5.09,16-10.48,24.26-15.36A233.89,233.89,0,0,1,618.93,452c-32.12-10-67-20-98.69-8.62-9.4,3.37-18.06,8.51-26.52,13.83a608.73,608.73,0,0,0-78.55,58.7"/><path d="M406.25,515.47a41.44,41.44,0,0,1,3.9,2.55l1.76,1.31c-.63-.47,0,0,.24.2l1.16.91a79.75,79.75,0,0,0,8,5.9,24,24,0,0,0,9.77,3.45c4,.46,7.76-.75,11.36-2.33,7.39-3.26,14.59-7.07,21.69-10.93s14.21-8,21.13-12.33,13.78-8.94,20.77-13.26c6.6-4.08,13.38-7.87,20.35-11.29q5.21-2.55,10.52-4.83l1.23-.53c-.61.26.4-.16.57-.23.89-.37,1.78-.74,2.68-1.09q2.69-1.08,5.4-2.09,10.75-4,21.86-6.93t22.43-4.76l2.86-.44,1.32-.2.67-.09.5-.07.29,0,.66-.08,1.32-.17,3.1-.36q5.64-.62,11.32-.95,2.88-.17,5.78-.27a4.51,4.51,0,0,0,1.2-8.84c-28.62-8.9-59.2-17.89-89.35-11.87-15,3-28.15,10.46-40.9,18.53s-25.38,16.73-37.58,25.8Q431.48,495.61,412,512.75a4.53,4.53,0,0,0,0,6.36,4.61,4.61,0,0,0,6.37,0q8.46-7.46,17.2-14.6,4.41-3.6,8.89-7.13,2-1.59,4-3.15c-.61.48.6-.45.57-.43l1.1-.85,2.6-2q17.81-13.47,36.57-25.61c6.22-4,12.47-8,19-11.57q2.22-1.21,4.5-2.34c.82-.41,1.65-.81,2.49-1.19l1.25-.58.85-.37.19-.08a80.52,80.52,0,0,1,10.36-3.53,85.84,85.84,0,0,1,10.54-2.11l.58-.07,1.33-.15,2.23-.2c1.93-.16,3.87-.25,5.81-.3,3.6-.09,7.21,0,10.81.25,1.66.11,3.32.26,5,.43l2.72.31,1.36.17c-.81-.1.92.14,1.07.16,16.49,2.41,32.51,7.22,48.38,12.16l1.2-8.84a237.81,237.81,0,0,0-89.59,20.87Q519,473,509.09,478.66c-7,4-13.72,8.39-20.47,12.76a430.32,430.32,0,0,1-42.27,24.24q-2.78,1.37-5.56,2.7l-2.45,1.15-.27.12c.4-.17-.26.11-.28.11-.48.19-1,.37-1.44.53l-1.26.36-.64.15s-.75.14-.27.06-.12,0-.18,0c-.23,0-.46,0-.69,0a11.78,11.78,0,0,1-1.19,0c-.18,0-1.22-.14-.57,0s-.38-.09-.55-.12a18.8,18.8,0,0,1-2.07-.6c-.42-.16-.86-.38-.16,0l-.92-.43c-.72-.36-1.42-.75-2.11-1.17-1.26-.78-2.47-1.63-3.66-2.52l-.55-.42c.41.31-.55-.43-.7-.55L419,513.51c-1.4-1.11-2.81-2.21-4.26-3.26a41.44,41.44,0,0,0-3.9-2.55,4.5,4.5,0,1,0-4.54,7.77Z"/><path d="M430.34,520.38a188.1,188.1,0,0,1,18.54-19.85q5-4.65,10.37-8.94c.82-.66,1.65-1.32,2.49-2-.64.5-.09.07,0,0l.63-.48,1.59-1.19q2.7-2,5.48-3.94a197.68,197.68,0,0,1,23.37-13.87c2-1,4-2,6.08-2.93L502,465.8l1.46-.63.73-.31a2.71,2.71,0,0,1,.39-.17c4.16-1.7,8.36-3.31,12.62-4.74a189.87,189.87,0,0,1,29.63-7.38l-2.4-8.68a501.36,501.36,0,0,0-50.37,23.43,489.33,489.33,0,0,0-46.63,28.45q-6.32,4.37-12.5,8.92c-2.29,1.7-4.54,3.26-6.23,5.59a7.74,7.74,0,0,0-.54,8.69,4.63,4.63,0,0,0,5.08,2.07,64,64,0,0,0,18.88-8.36,4.5,4.5,0,0,0-4.54-7.77l-15.19,7.7,4.55,7.77q26.67-15.53,52.15-33l-4.54-7.77L447.38,505.8a4.54,4.54,0,0,0,1.08,8.23c4.67,1.44,8.82-1.21,12.6-3.62l10.66-6.79L493,490l12.13-7.73a4.5,4.5,0,0,0-4.55-7.77l-23.4,14.71,4.54,7.77a239.44,239.44,0,0,1,27.15-16.34q7-3.62,14.23-6.75l1.63-.7c1.31-.56-.43.17.35-.15l.82-.34c1.3-.54,2.6-1.06,3.91-1.57q3.61-1.43,7.27-2.73,8.46-3,17.13-5.38a4.55,4.55,0,0,0,3.14-5.54c-.82-2.55-3-3.51-5.53-3.14a196.29,196.29,0,0,0-53.54,16.08q-7.15,3.32-14,7.2l4.54,7.77a130.41,130.41,0,0,1,22.57-13.34c.91-.42,1.83-.83,2.75-1.23l.79-.35c-.18.08-.71.3.12,0l1.59-.65q3-1.2,6.05-2.26,6.21-2.13,12.61-3.64,3.57-.84,7.17-1.48c1.2-.21,2.4-.41,3.61-.58l.85-.13h.09l2.13-.26c2.33-.27,4.62-1.88,4.5-4.5a4.57,4.57,0,0,0-4.5-4.5l-23.42.6-11.72.29-1.24,0h-.4c-.54,0-.54,0,0,.07.72.55,1.11.49,1.43,1.71.07.23-.17,1.76.1,1-.34,1-.08.33.07.05.26-.51-.71.6.08-.06.15-.13,1.06-.84.17-.24.42-.28.86-.53,1.3-.77a45,45,0,0,1,4.08-2c-.9.38.35-.14.44-.17l1.14-.43c.77-.28,1.54-.54,2.32-.78,1.43-.44,2.87-.82,4.33-1.14.8-.17,1.6-.33,2.4-.47l1.21-.2.81-.12c-.45.06-.52.07-.18,0a81.19,81.19,0,0,1,19.27.23c-1-.13.38.05.48.07l1.67.26c.83.14,1.66.28,2.49.44,1.8.34,3.6.73,5.38,1.16,3.68.87,7.31,1.93,10.9,3.11l1.2-8.84a170.93,170.93,0,0,0-34.31,7.11,4.51,4.51,0,0,0-3.22,4.94c.27,2.05,2.18,4.09,4.42,3.9a210.76,210.76,0,0,0,39.46-7.18,4.59,4.59,0,0,0,3.31-4.34,4.72,4.72,0,0,0-3.31-4.34,53.51,53.51,0,0,0-20.61-3l1.2,8.84c1.22-.24,2.44-.46,3.67-.64a11,11,0,0,0,1.12-.13c.62-.07,1.24-.12,1.86-.17a62.69,62.69,0,0,1,7-.17c1.24,0,2.48.11,3.72.22l1.4.13.92.11.19,0a69.63,69.63,0,0,1,7.31,1.5,4.5,4.5,0,1,0,2.39-8.67,70.47,70.47,0,0,0-32-.89,4.51,4.51,0,0,0,1.2,8.84c1.61-.08,3.21-.1,4.82,0,.77,0,1.53.08,2.29.15l1.15.11c1.48.16-.85-.14.62.08a51.78,51.78,0,0,1,9.34,2.37V446.4c-6.17,1.75-12.42,3.23-18.73,4.39a175.87,175.87,0,0,1-18.34,2.47l1.19,8.84a163.92,163.92,0,0,1,16.14-4.29q4-.84,8-1.48l2.13-.32.94-.14c.32,0,.32,0,0,0l.47-.06c1.42-.19,2.85-.35,4.27-.5a4.51,4.51,0,0,0,1.2-8.84c-14-4.6-29.06-7.42-43.8-5.44a59.51,59.51,0,0,0-10.72,2.38A43.28,43.28,0,0,0,509.85,448c-3.87,2.62-6.94,8-3.21,12.14,1.79,2,4.39,2.26,6.91,2.2l6.48-.17,29.15-.74v-9a136.71,136.71,0,0,0-52.06,16.88,129.94,129.94,0,0,0-12.81,8.32c-1.89,1.39-3,4-1.62,6.15a4.59,4.59,0,0,0,6.16,1.62q6-3.37,12.18-6.33c2-1,4.09-1.9,6.15-2.79L508,476c.55-.24,1.11-.47,1.66-.69,1.12-.46,2.23-.9,3.35-1.34a193.86,193.86,0,0,1,26-8q7.57-1.76,15.26-2.88l-2.39-8.68a245,245,0,0,0-59.34,25.05q-7.83,4.62-15.3,9.82c-1.93,1.34-3,4-1.62,6.15a4.57,4.57,0,0,0,6.16,1.62l23.41-14.71-4.55-7.77L474.5,491.19l-13,8.25-6.48,4.13c-.51.32-1,.65-1.55,1-.14.08-1.63.84-.92.54-.19.08-1.83.47-.87.36a5.75,5.75,0,0,1-.83,0c.51.06.49,0,0-.1l1.08,8.22,37.15-26.15c1.93-1.35,3-4,1.62-6.16-1.25-1.93-4.08-3-6.16-1.61q-25.47,17.43-52.16,33a4.5,4.5,0,0,0,4.55,7.77l15.18-7.7-4.54-7.77a60.76,60.76,0,0,1-8.37,4.6c-.12.05-1,.45-.36.17l-1,.41c-.76.3-1.52.59-2.29.86-1.54.54-3.1,1-4.68,1.41l5.08,2.07c-.2-.3-.21-.6,0,.19a3.19,3.19,0,0,1,0,.87c0,.91.06-.59-.07.19-.08.46-.06.09.06-.09l.39-.61c-.05.08-.48.5-.12.17s.75-.7,1.08-1.06-.63.45,0,0l.54-.4,1.27-.95,2.73-2q5.3-3.86,10.69-7.57,10.8-7.43,22-14.26a488.4,488.4,0,0,1,45.87-24.78Q527,461,533.72,458l3.32-1.43,1.66-.71c-.61.26.08,0,.18-.07l1-.44q3.44-1.44,6.9-2.82c2.17-.87,3.95-3,3.14-5.53a4.64,4.64,0,0,0-5.54-3.15,196,196,0,0,0-52.92,16.88,199.94,199.94,0,0,0-46.19,30.86A190.44,190.44,0,0,0,424,514c-1.48,1.83-1.92,4.61,0,6.37,1.64,1.5,4.78,2,6.37,0Z"/><path d="M424.56,519.3a12.59,12.59,0,0,0,2.85.48,13.23,13.23,0,0,0,2.88-.23,3.34,3.34,0,0,0,1.53-.81,3.43,3.43,0,0,0,1.16-1.26,3.29,3.29,0,0,0,.53-1.67,3.34,3.34,0,0,0-.08-1.8l-.45-1.07a4.54,4.54,0,0,0-1.61-1.62l-1.08-.45a4.41,4.41,0,0,0-2.39,0l-.19,0,1.2-.17a6.93,6.93,0,0,1-1.93,0l1.19.16a6.23,6.23,0,0,1-1.21-.27,3.55,3.55,0,0,0-1.8-.08,3.37,3.37,0,0,0-1.67.54,3.28,3.28,0,0,0-1.26,1.16,3.34,3.34,0,0,0-.81,1.53l-.16,1.19a4.52,4.52,0,0,0,.61,2.27l.71.91a4.43,4.43,0,0,0,2,1.16Z"/><path d="M293.51,483.21,297.43,497c.66,2.32,1.35,4.63,1.94,7,.27,1.07.48,2.14.69,3.21.09.55.1.61.05.18,0,.31.07.61.09.92.05.54.07,1.07.08,1.61s0,1.06-.06,1.59-.06.61,0,.17c0,.3-.12.6-.19.9s-.21.82-.35,1.22-.18.51-.28.77c.19-.46.18-.45,0,0-.46.83-.9,1.65-1.44,2.44l-.48.66c.29-.37.27-.35-.05.06s-.62.74-.94,1.1c-2.95,3.35-6.3,6.39-9.48,9.52a4.5,4.5,0,0,0,6.36,6.36c6.86-6.75,15.5-13.5,15.94-23.91.22-5.11-1.44-10.14-2.81-15l-4.26-15a4.5,4.5,0,0,0-8.68,2.39Z"/><path d="M289.25,507.35c-.81,1.08.56-.65-.3.39l-.78.94q-.81.94-1.65,1.83a43.32,43.32,0,0,1-3.93,3.62c.05,0-1,.79-.51.41l-.53.39c-.66.48-1.34,1-2,1.39a40.69,40.69,0,0,1-4.66,2.59c-.38.19-.77.37-1.16.54.64-.27-.27.08-.42.14a12.85,12.85,0,0,1-2.43.66c.91-.13-.55,0-.6,0-1.11.07.47.24-.57-.06-.43-.13-.84-.24-1.26-.39.73.27-.78-.39-.93-.47-3.46-1.82-6.81-3.88-10.2-5.83l-41.51-23.82c-6.93-4-13.81-8.05-20.86-11.81A223.21,223.21,0,0,0,173.4,468c-7.06-2.85-14.21-5.73-21.46-8.08a54,54,0,0,0-11.77-2.06l-1.39-.14c-1.48-.14.83.18-.64-.08-.89-.16-1.78-.34-2.66-.57-1.76-.45-3.47-1-5.19-1.62a49.93,49.93,0,0,0-12.84-2.84,66.7,66.7,0,0,0-12.78.61c-8.91,1.08-17.8,2.33-26.69,3.5-2.33.31-4.62,1.85-4.5,4.5a4.55,4.55,0,0,0,4.5,4.5c11.45-.47,22.9-.91,34.36-.72,5.71.1,11.42.35,17.11.85,1.38.12,2.75.25,4.13.4l2.06.24,1.14.14.77.1.77.11.9.14c.69.1,1.37.2,2.05.32,1.43.23,2.86.48,4.29.76a130.37,130.37,0,0,1,18.64,5,4.54,4.54,0,0,0,5.54-3.15,4.6,4.6,0,0,0-3.15-5.53c-22.12-7.75-45.9-8.81-69.12-8.31-6.5.14-13,.4-19.49.66v9l24.09-3.17a98.18,98.18,0,0,1,11.61-1,41,41,0,0,1,5.65.27c-.86-.11.67.11.67.11l1.39.28c1,.23,2,.52,3.06.83,3.46,1.06,6.84,2.45,10.4,3.15a57.21,57.21,0,0,0,6.24.79c.93.08,1.85.16,2.77.27,1.48.17-.81-.2.64.1.62.12,1.24.23,1.86.38a92.3,92.3,0,0,1,10.81,3.67c3.73,1.39,7.46,2.79,11.17,4.25q2.44,1,4.88,2c1.78.73,3,1.26,5.08,2.17q5.47,2.43,10.79,5.21c7.06,3.7,13.93,7.77,20.84,11.74L252.3,521c3.78,2.17,7.5,4.61,11.43,6.48a14.62,14.62,0,0,0,7.41,1.71,21.55,21.55,0,0,0,7.51-2.17A47.83,47.83,0,0,0,297,511.89c1.41-1.89.36-5.11-1.62-6.16-2.36-1.25-4.64-.4-6.16,1.62Z"/><path d="M118.07,460.38c3.08-.53,6.16-1,9.25-1.5s6-.88,8.57-1.21q9.3-1.19,18.64-2a101.41,101.41,0,0,1,18-.4l1.19.12.23,0c.69.1,1.38.22,2.06.35,1.35.26,2.68.58,4,1s2.48.76,3.69,1.2c.68.25,1.35.52,2,.78.12,0,.79.34.13,0l1.19.53c10.27,4.67,19.46,11.58,28.71,18,9.83,6.79,19.62,13.63,29.55,20.29,11.16,7.49,22.49,14.74,34.16,21.41a4.5,4.5,0,0,0,4.55-7.77c-21.11-12-41-26-61-39.82-9.44-6.53-18.79-13.59-29.09-18.73A59.86,59.86,0,0,0,177.54,447a78.58,78.58,0,0,0-19.14-.57c-14.31,1-28.59,2.88-42.72,5.32-2.33.4-3.85,3.38-3.15,5.54a4.64,4.64,0,0,0,5.54,3.14Z"/><path d="M140.35,462.69c2.81.22,5.61.46,8.42.73,1.36.14,2.72.28,4.08.44l1.92.23.95.12a5.67,5.67,0,0,1,.72.1,129.51,129.51,0,0,1,16,3.19A117.75,117.75,0,0,1,185.52,472l.92.38.39.16.38.16.74.32c1.1.48,2.19,1,3.28,1.49q3.18,1.49,6.28,3.11c16.73,8.74,31.91,20,47.49,30.59a288.85,288.85,0,0,0,27.09,16.61c3.9,2.05,8.48-2.15,6.15-6.16-3.73-6.44-10-10.64-16.14-14.48-6.59-4.09-13.18-8.17-19.92-12a208.78,208.78,0,0,0-20.73-10.51,176.64,176.64,0,0,0-22-7.61,112.92,112.92,0,0,1-11.09-3.6s-.67-.27-.21-.08l-.39-.17c-.43-.19-.85-.38-1.28-.59-.84-.4-1.68-.83-2.49-1.29s-1.73-1-2.56-1.58c-.38-.26-.76-.54-1.14-.82.68.49-.51-.42-.67-.55l-5.46,7.06a444.72,444.72,0,0,1,43.59,25q6,3.9,11.82,8a4.51,4.51,0,0,0,6.15-1.61,4.61,4.61,0,0,0-1.61-6.16,447.7,447.7,0,0,0-42.75-26.41q-6.27-3.4-12.65-6.6a4.56,4.56,0,0,0-5.81,1.16c-1.27,1.65-1.37,4.46.35,5.91,5.68,4.78,12.42,7.59,19.46,9.74s14,3.92,20.86,6.6c.85.33,1.69.67,2.53,1,.48.2.07,0,0,0l.63.26,1.46.64q2.59,1.15,5.16,2.38c3.49,1.69,6.93,3.48,10.33,5.34,6.75,3.71,13.33,7.71,19.88,11.76,3.4,2.1,6.87,4.14,10.1,6.49l.49.36.34.26c-.38-.3.14.11.18.15.2.17.41.33.61.51.76.64,1.5,1.31,2.2,2,.32.33.64.67.94,1,.14.15.26.3.39.45s.58.69.27.31.1.13.13.18c.15.21.31.43.45.65.3.44.57.89.84,1.35l6.16-6.16c-16.94-8.92-32.34-20.37-48.17-31.06s-32.38-20.7-50.76-26.27c-12.12-3.67-24.78-5-37.35-6a4.52,4.52,0,0,0-4.5,4.5,4.61,4.61,0,0,0,4.5,4.5Z"/><path d="M153.17,460.39a86,86,0,0,1,16.51-.51l1.09.11c.83.1-1-.2.33.06.58.11,1.16.2,1.73.32a29.66,29.66,0,0,1,4.23,1.23c.28.1.56.2.83.32-.7-.29,0,0,.09.05.57.28,1.15.55,1.71.85,1.18.64,2.33,1.34,3.44,2.09,4.46,3,8.51,6.5,13,9.48a141,141,0,0,0,14.48,8.42c5.66,2.9,11.45,5.54,17.23,8.18,2.14,1,4.95.68,6.16-1.62,1-2,.67-5.11-1.61-6.16-10.45-4.75-21-9.54-30.59-15.84-4.57-3-8.72-6.53-13.21-9.64a37.23,37.23,0,0,0-15.49-6.43c-6.64-1-13.25-.55-19.89.09-2.34.22-4.62,1.91-4.5,4.5.1,2.24,2,4.74,4.5,4.5Z"/><path class="cls-2" d="M455.31,266.05H254.43l-2.15-257a7.41,7.41,0,0,1,7.29-7.59H445.49a7.79,7.79,0,0,1,7.67,7.84Z"/><polyline class="cls-2" points="254.43 266.05 125.45 289.31 354.44 469.55 592.01 288.17 592.45 285.96 455.31 266.05"/><path class="cls-2" d="M617.23,520.43c6.48,26-27.57,56.67-73.44,68.13s-97-6.34-103.52-32.3,37.74-62,83.61-73.43S610.74,494.47,617.23,520.43Z"/><path class="cls-2" d="M89,514.78c4.3-26.41,47.72-41.16,94.38-33.56s86.64,44.17,82.33,70.57-59.16,42-105.82,34.42S84.72,541.19,89,514.78Z"/><path class="cls-1" d="M255.12,263.17,253,269.09a3.55,3.55,0,0,0-.08,1.8,4.05,4.05,0,0,0,1.7,2.93,3.34,3.34,0,0,0,1.53.81,4.58,4.58,0,0,0,3.47-.46l.91-.7a4.5,4.5,0,0,0,1.15-2l2.12-5.93a5.08,5.08,0,0,0-.45-3.47,3.51,3.51,0,0,0-1.16-1.26,3.44,3.44,0,0,0-1.53-.81,4.56,4.56,0,0,0-3.47.46l-.91.7a4.41,4.41,0,0,0-1.16,2Z"/><path class="cls-1" d="M253.68,264.5l-.11,3.45a3.44,3.44,0,0,0,.39,1.73,4,4,0,0,0,2.38,2.38,3.41,3.41,0,0,0,1.73.39l1.2-.16a4.52,4.52,0,0,0,2-1.16l.71-.91a4.52,4.52,0,0,0,.61-2.27l.3-4.05a5,5,0,0,0-1.32-3.18,3.3,3.3,0,0,0-1.45-.93,3.41,3.41,0,0,0-1.73-.39l-1.2.17a4.41,4.41,0,0,0-2,1.15l-.7.91a4.45,4.45,0,0,0-.62,2.27l-.46,3.62.16,1.2.46,1.07.7.92a3.55,3.55,0,0,0,1.45.93,2.25,2.25,0,0,0,1.13.3,2.22,2.22,0,0,0,1.2,0,2.26,2.26,0,0,0,1.14-.3,3.51,3.51,0,0,0,1.44-.93,4.24,4.24,0,0,0,.92-1.15,4.63,4.63,0,0,0,.63-2,5.09,5.09,0,0,0-.67-3.47,4.49,4.49,0,0,0-1.62-1.62,3.26,3.26,0,0,0-1.67-.53,3.34,3.34,0,0,0-1.8.08,4.5,4.5,0,0,0-2,1.15,12.38,12.38,0,0,0-.78,1l-.07.11-.09.17c-.16.37-.35.78-.48,1.16a5.59,5.59,0,0,0-.15.88,4.67,4.67,0,0,0-.08.91,3.41,3.41,0,0,0,.39,1.73,3.36,3.36,0,0,0,.93,1.45l.91.7a3.41,3.41,0,0,0,1.68.54,2.19,2.19,0,0,0,1.19,0,3.34,3.34,0,0,0,1.67-.54l.92-.7a4.5,4.5,0,0,0,1.15-2,12.22,12.22,0,0,0,.22-2.69c-.05-.62-.14-1.25-.25-1.86a5.47,5.47,0,0,0-.19-.8,3.52,3.52,0,0,0-.8-1.53,3.38,3.38,0,0,0-1.27-1.16l-1.07-.45a3.34,3.34,0,0,0-1.8-.08,2.25,2.25,0,0,0-1.13.3,3.47,3.47,0,0,0-1.45.94l-.7.91a4.4,4.4,0,0,0-.62,2.27c0,.83,0,1.67,0,2.5a8.87,8.87,0,0,0,.21,1.62,4.66,4.66,0,1,0,9-2.43,3.44,3.44,0,0,0-.81-1.53,3.51,3.51,0,0,0-1.26-1.16,3.39,3.39,0,0,0-1.67-.53,3.44,3.44,0,0,0-1.8.08l-1.07.45A4.49,4.49,0,0,0,254,265.1l-.45,1.07a4.45,4.45,0,0,0,0,2.4v0l-.16-1.19v0l.61-2.27v0l.7-.91,0,0,.91-.7,0,0,1.08-.46-.08,0,1.19-.16h0l2.27.62,0,0,.92.7,0,0,.7.91a.41.41,0,0,1,0-.09l.45,1.07,0-.11.16,1.2c-.05-.45,0-.92-.05-1.38s0-1,0-1.43l-8.84,1.19a7,7,0,0,1,.24,1.1l-.16-1.2a6.71,6.71,0,0,1,0,1.79l.17-1.2,0,.07,8.84,1.2a1.71,1.71,0,0,1,0-.32l-.16,1.2a1.48,1.48,0,0,1,.1-.36l-.45,1.07a1.29,1.29,0,0,1,.19-.32l-.71.91,0-.05-7.07-.91a.39.39,0,0,1,.08.14l-.45-1.08a.76.76,0,0,1,.06.2l-.16-1.19a1.13,1.13,0,0,1,0,.26l.16-1.19a1.46,1.46,0,0,1,0,.2l.45-1.07a1.62,1.62,0,0,1-.1.18l.7-.91a.71.71,0,0,1-.15.15l7.68,3.18.46-3.62h-9l-.3,4.05h9l.11-3.45a3.44,3.44,0,0,0-.39-1.73,4,4,0,0,0-2.38-2.38,3.44,3.44,0,0,0-1.73-.39l-1.2.16a4.61,4.61,0,0,0-2,1.16l-.7.91a4.42,4.42,0,0,0-.61,2.27Z"/><path class="cls-1" d="M447.75,266.24l.1.12-.7-.91a2.43,2.43,0,0,1,.2.35l-.45-1.07a3.52,3.52,0,0,1,.2.79l-.16-1.2c0,.17,0,.33,0,.5s0,.17,0,.25a4.2,4.2,0,0,0,.42,1.9,3.37,3.37,0,0,0,.65,1.13,3.74,3.74,0,0,0,1.34,1.23,3.67,3.67,0,0,0,1.77.58l.66.09,1.26-.18a3.32,3.32,0,0,0,1.53-.8,3.43,3.43,0,0,0,1.16-1.26,4.45,4.45,0,0,0,.46-3.47.65.65,0,0,1,0-.13l.16,1.19v-.13l-.16,1.19a.93.93,0,0,1,0-.13l-.46,1.08a.67.67,0,0,1,.11-.18l-.71.91.11-.09-.92.71.06,0-1.07.46.06,0-5.69-4.34c.05,1.23,0,2.47,0,3.7a3.33,3.33,0,0,0,.38,1.73,3.45,3.45,0,0,0,.93,1.45,3.36,3.36,0,0,0,1.45.93,3.47,3.47,0,0,0,1.74.39,4.6,4.6,0,0,0,3.18-1.32l.7-.91a4.53,4.53,0,0,0,.62-2.27c.06-1.23.07-2.47,0-3.7a4.53,4.53,0,0,0-.62-2.27,5.09,5.09,0,0,0-2.69-2.07,4.61,4.61,0,0,0-2.39,0,7.1,7.1,0,0,0-1.17.5,8.57,8.57,0,0,0-1,.74,6.65,6.65,0,0,0-.77,1,.55.55,0,0,0-.09.14,8.63,8.63,0,0,0-.48,1.14l0,.1-.16,1.2a4.23,4.23,0,0,0,.2,1.46l3.14-5.53h-.07l1.2-.16h-.07l1.2.16-.06,0,1.07.46-.06,0,.91.7-.05-.05.71.91a.37.37,0,0,1-.07-.14l.45,1.08a.45.45,0,0,1,0-.16l.16,1.19a16.39,16.39,0,0,0-.29-2.31,6.61,6.61,0,0,0-1.6-2.89,3.36,3.36,0,0,0-1.45-.93,4.13,4.13,0,0,0-3.46,0,3.36,3.36,0,0,0-1.45.93,4.55,4.55,0,0,0-1.32,3.19l.16,1.19a4.46,4.46,0,0,0,1.16,2Z"/><path d="M665.13,167.28c.49,9.11,4.47,17.28,9.25,24.89,4.67,7.45,9.64,14.6,13.35,22.62.44,1,.86,1.93,1.29,2.9.29.67-.23-.58,0,.1l.32.78c.24.59.48,1.18.71,1.77q1.18,3.06,2.22,6.18c1.4,4.24,2.59,8.55,3.61,12.9s1.88,8.8,2.6,13.25c.17,1.06.33,2.13.49,3.19.08.57.17,1.14.25,1.71,0,.28.07.57.11.85-.06-.48,0-.26,0,.09q.45,3.44.82,6.87c1.09,10.17,1.72,20.38,2.31,30.58.13,2.35,2,4.62,4.5,4.5,2.32-.1,4.64-2,4.5-4.5-1.06-18.32-2.23-36.75-6-54.76a144.45,144.45,0,0,0-7.71-25.61,120.88,120.88,0,0,0-6.09-12.74c-2.12-3.8-4.52-7.42-6.9-11.06a113.77,113.77,0,0,1-7.29-12.31c-.26-.54-.51-1.09-.76-1.64,0-.11-.38-.88-.17-.38s-.18-.47-.22-.56c-.43-1.11-.82-2.24-1.15-3.38a34.29,34.29,0,0,1-.82-3.47c0-.29-.22-1.71-.13-.77-.07-.67-.13-1.33-.16-2-.13-2.35-2-4.62-4.5-4.5-2.33.1-4.64,2-4.5,4.5Z"/><path d="M547.76,838.6c-15.25,10-30.5,20-45.54,30.38S472.44,890,458,901.22c-3.4,2.63-5.55,4.31-9.1,7-3.3,2.49-6.63,4.94-10,7.3a147,147,0,0,1-21,12.4c-.91.43-1.82.85-2.74,1.25l-.6.25c-.67.3.57-.22-.11.05l-1.6.65Q410,931.26,407,932.2a104.33,104.33,0,0,1-12.85,3.17A116.89,116.89,0,0,1,382,937c-4.43.4-8.88.63-13.32.78s-8.9.22-13.35.27-9,.14-13.46-.16c-1.12-.07-2.23-.17-3.35-.29,0,0-.77-.1-.35,0s-.51-.08-.59-.09c-.64-.1-1.27-.21-1.9-.33a56.63,56.63,0,0,1-6.15-1.59,101.11,101.11,0,0,0-12.18-3.45,33.79,33.79,0,0,0-6.88-.6,4.5,4.5,0,0,0,0,9,26.34,26.34,0,0,1,3.08.08l.65.07c.74.06-.62-.12.11,0,.57.11,1.15.19,1.73.31,2,.42,4,1,6,1.62A93.33,93.33,0,0,0,334.47,946c9.19,1.55,18.6,1.09,27.88.91,17.85-.34,36.14-1.52,52.92-8.13,15.64-6.16,29.29-15.93,42.52-26.12l5.56-4.3,2.24-1.73.63-.49,1.38-1.06q5.4-4.17,10.89-8.22,11-8.18,22.33-16c15.11-10.52,30.46-20.68,45.84-30.79l5.65-3.71a4.5,4.5,0,0,0-4.55-7.77Z"/><path d="M.22,542.4c9.65,25.41,13.29,52.45,16.27,79.28,3,27.35,5.51,55,13.1,81.56a212.35,212.35,0,0,0,59.3,96.64A267.17,267.17,0,0,0,122.47,826c12.07,8,24.62,15.28,37.16,22.51L199,871.16l9.72,5.6c5,2.9,9.56-4.88,4.54-7.77l-38.88-22.4c-12.66-7.3-25.4-14.49-37.8-22.24-22.71-14.18-43.76-30.68-60.77-51.49A202.47,202.47,0,0,1,40.6,708.47C32.24,683,29.27,656.25,26.37,629.72c-2.94-27-5.81-54.24-14.13-80.18Q10.7,544.74,8.9,540a4.63,4.63,0,0,0-5.54-3.14c-2.17.59-4,3.25-3.14,5.53Z"/><path d="M208.55,875.78a399,399,0,0,1,43.8,28.36c3.69,2.75,6.26,4.76,9.85,7.6s7.21,5.72,10.95,8.4a154.35,154.35,0,0,0,21.14,12.76,164.2,164.2,0,0,0,26.51,10.48,4.5,4.5,0,1,0,2.39-8.68q-5.93-1.76-11.7-4c-.89-.34-1.78-.7-2.67-1.06l-1.43-.58c.09,0,.54.23.06,0l-1-.43c-1.83-.79-3.63-1.62-5.42-2.48a155.48,155.48,0,0,1-21.16-12.3c-3.68-2.55-6.54-4.76-9.81-7.35-3.62-2.86-7.24-5.72-10.92-8.5q-10.32-7.8-21.14-14.93-12.17-8-24.9-15.11a4.5,4.5,0,1,0-4.54,7.77Z"/><path d="M547.49,448.13a5.59,5.59,0,0,0-2.63,2.65,5.18,5.18,0,0,0-.54,2.15,2.33,2.33,0,0,0,1.6,2.23c1.37.43,2.74-.52,3.57-1.52.48-.58,1-1.18,1.39-1.79a5.22,5.22,0,0,0,1-1.9,2,2,0,0,0-1.87-2.5,2,2,0,0,0-1.39.56,1.73,1.73,0,0,0-.43,1.73,1.58,1.58,0,0,0,.87,1,1.42,1.42,0,0,0,1.33-.08,3.47,3.47,0,0,0,1.38-4,1.67,1.67,0,0,0-.69-.9,1.51,1.51,0,0,0-2.21,1.7,2.31,2.31,0,0,1,.1.28l0,.12q0-.36,0-.18a1.43,1.43,0,0,0,0,.29c0-.12.07-.35,0-.06,0,0,0,.08,0,.13s0,0,.07-.16a.94.94,0,0,0-.12.22c-.13.25.22-.21,0,0s-.39.3,0,0l2.2.9c-.16-.45-.28-.05-.34,1.19a1.08,1.08,0,0,1-.47.28.85.85,0,0,1-.76-.11,1.06,1.06,0,0,1-.53-1.1c0,.16,0,.13.05-.07l-.09.19a14.37,14.37,0,0,1-1,1.36c0,.05-.35.48-.14.18-.07.1-.15.19-.22.28-.2.25-.39.49-.6.72l-.17.18-.13.11c.19-.14.22-.17.09-.08a1.64,1.64,0,0,1-.22.14l-.15.08c.23-.09.27-.11.13-.06s-.4.1-.1,0,.17,0,.05,0-.09,0,.2,0c-.15-.05-.09,0,.17.07s.26.21.15.11a.64.64,0,0,1,.18.27c0,.12,0,.12,0,0,0,.24,0,.27,0,.1s0-.13,0,.1a1.5,1.5,0,0,0,.07-.32l.09-.32a1.34,1.34,0,0,0,.07-.18c-.09.21-.1.25,0,.1a4.88,4.88,0,0,1,.34-.58l.11-.15c-.13.17-.16.2-.09.12s.15-.17.22-.25l.28-.26c.24-.22-.28.18,0,0a5.26,5.26,0,0,1,.65-.38,1.5,1.5,0,0,0,.54-2.05,1.53,1.53,0,0,0-2-.54Z"/><path d="M593.27,449.13a3.71,3.71,0,0,0-1.46-.79,3.81,3.81,0,0,0-1.68,0,1.5,1.5,0,0,0-1,1.85,1.5,1.5,0,0,0,.69.89,1.64,1.64,0,0,0,1.15.16,4.56,4.56,0,0,0,2.41-1.38,1.54,1.54,0,0,0,.41-.86,1.41,1.41,0,0,0-.18-1,2.14,2.14,0,0,0-.68-.66,1.87,1.87,0,0,0-1-.24,2.16,2.16,0,0,0-1.45.65,2.3,2.3,0,0,0-.61,1.11,2.16,2.16,0,0,0,0,1,2.35,2.35,0,0,0,.52.89,3,3,0,0,0,2.29.88,3.75,3.75,0,0,0,1.1-.16,2.19,2.19,0,0,0,1.42-1.42,1.78,1.78,0,0,0-.18-1.35,2.07,2.07,0,0,0-.7-.71,1.72,1.72,0,0,0-2.39.59,1.62,1.62,0,0,0-.16,1.16,1.59,1.59,0,0,0,.69.9,1.56,1.56,0,0,0,1.16.15,1.59,1.59,0,0,0,.9-.69.09.09,0,0,1,0-.05l-.24.3,0,0-.3.23,0,0-.35.15h0l-.4.05h.05l-.4-.05.09,0-.36-.15.08,0-.3-.23.09.09-.23-.3a.56.56,0,0,1,.05.08l-.15-.36a.29.29,0,0,1,0,.09l-.05-.4v.06l.05-.4a.23.23,0,0,1,0,.11l.15-.36-.06.1.23-.3-.08.08.3-.24a.54.54,0,0,1-.18.11l.36-.16a1.64,1.64,0,0,1-.38.1l.4-.05a3.28,3.28,0,0,1-.7,0l.4.05a1.83,1.83,0,0,1-.46-.12l.36.15a.89.89,0,0,1-.25-.14l.3.24a1.37,1.37,0,0,1-.17-.17l.24.3a.62.62,0,0,1-.11-.17l.15.36,0-.13.05.4v-.13l-.05.4a.73.73,0,0,1,.05-.2l-.15.36a1,1,0,0,1,.1-.17l-.23.3a.81.81,0,0,1,.16-.16l-.3.23.13-.08-.35.15.14,0-.4.05H592l-.4-.05.08,0-.36-.15.07,0-.3-.23.07.06-.24-.3,0,0,.24-1.82a3.88,3.88,0,0,1-.42.39l.3-.23a3.49,3.49,0,0,1-.67.4l.35-.16a3,3,0,0,1-.64.2l.79,2.9.15,0-.39.05a2.17,2.17,0,0,1,.51,0l-.4-.05a2.55,2.55,0,0,1,.54.15l-.36-.15a2.3,2.3,0,0,1,.4.23l-.31-.23.08.06a1.63,1.63,0,0,0,1.07.44,1.53,1.53,0,0,0,1.06-.44,1.56,1.56,0,0,0,.44-1.06,1.48,1.48,0,0,0-.44-1.06Z"/></g></g></svg>